<svg width="18" height="18" viewBox="0 0 18 18" fill="none" xmlns="http://www.w3.org/2000/svg">
<path d="M16.3125 9C16.3125 13.0386 13.0386 16.3125 9 16.3125V18C13.9706 18 18 13.9706 18 9H16.3125ZM9 16.3125C4.96142 16.3125 1.6875 13.0386 1.6875 9H0C0 13.9706 4.02943 18 9 18V16.3125ZM1.6875 9C1.6875 4.96142 4.96142 1.6875 9 1.6875V0C4.02943 0 0 4.02943 0 9H1.6875ZM9 1.6875C13.0386 1.6875 16.3125 4.96142 16.3125 9H18C18 4.02943 13.9706 0 9 0V1.6875Z" fill="#595667"/>
<path d="M10.6875 6.75C10.6875 7.68195 9.93195 8.4375 9 8.4375V10.125C10.864 10.125 12.375 8.61401 12.375 6.75H10.6875ZM9 8.4375C8.06805 8.4375 7.3125 7.68195 7.3125 6.75H5.625C5.625 8.61401 7.13599 10.125 9 10.125V8.4375ZM7.3125 6.75C7.3125 5.81802 8.06805 5.0625 9 5.0625V3.375C7.13599 3.375 5.625 4.88604 5.625 6.75H7.3125ZM9 5.0625C9.93195 5.0625 10.6875 5.81802 10.6875 6.75H12.375C12.375 4.88604 10.864 3.375 9 3.375V5.0625Z" fill="#595667"/>
<path d="M2.9494 14.0846C2.65098 14.4425 2.6992 14.9746 3.05709 15.2729C3.415 15.5714 3.94705 15.5231 4.24546 15.1653L2.9494 14.0846ZM13.7552 15.1653C14.0535 15.5231 14.5856 15.5714 14.9435 15.2729C15.3014 14.9746 15.3496 14.4425 15.0512 14.0846L13.7552 15.1653ZM4.24546 15.1653C5.3818 13.8025 7.08964 12.9374 9.00034 12.9374V11.2499C6.56794 11.2499 4.39261 12.3537 2.9494 14.0846L4.24546 15.1653ZM9.00034 12.9374C10.9109 12.9374 12.6188 13.8025 13.7552 15.1653L15.0512 14.0846C13.608 12.3537 11.4327 11.2499 9.00034 11.2499V12.9374Z" fill="#595667"/>
</svg>
