<svg width="41" height="40" viewBox="0 0 41 40" fill="none" xmlns="http://www.w3.org/2000/svg">
<path d="M23.75 2.13428C24.8356 2.04414 25.7219 2.06297 26.5273 2.34912C27.0049 2.51878 27.3852 2.91331 27.9238 3.65381C28.3914 4.29671 29.0508 5.33201 30.0088 6.00732C31.051 6.742 32.4546 7.24144 33.4277 7.65479C34.5624 8.13676 35.1618 8.51404 35.4062 8.92236C35.7581 9.51001 35.9434 10.2542 36.1162 11.2622C36.2784 12.2078 36.4328 13.4214 36.79 14.6011C37.1129 15.6672 37.7983 16.7918 38.2471 17.6382C38.7538 18.594 39.0526 19.3357 39.0527 19.9995C39.0527 20.6206 38.7878 21.1882 38.2959 21.9644C37.8568 22.6571 37.1304 23.646 36.79 24.77C36.419 25.9953 36.3515 27.4005 36.2344 28.4253C36.1051 29.5559 35.915 30.3733 35.4697 30.9829C35.0282 31.5874 34.3051 32.0226 33.2715 32.4966C32.338 32.9246 31.0325 33.4243 30.0088 34.146C29.0673 34.8097 28.4119 35.7859 27.9434 36.397C27.4143 37.087 27.0289 37.4727 26.5273 37.6509C25.7219 37.937 24.8356 37.9559 23.75 37.8657C22.7494 37.7826 21.4061 37.5786 20.1514 37.5786C18.8967 37.5786 17.5533 37.7826 16.5527 37.8657C15.4671 37.9559 14.5809 37.937 13.7754 37.6509C13.0442 37.3911 12.4454 36.9273 11.7764 36.2915C11.1596 35.7054 10.365 34.8404 9.47852 34.1704C8.61188 33.5155 7.53 32.9694 6.74805 32.5142C5.89128 32.0153 5.2528 31.5576 4.83301 30.9829C4.3503 30.3221 4.08122 29.445 3.85938 28.3247C3.65676 27.3015 3.4773 25.927 3.12695 24.77C2.80719 23.714 2.226 22.7545 1.87012 22.062C1.48359 21.3098 1.25 20.6984 1.25 19.9995C1.25014 19.3357 1.5489 18.594 2.05566 17.6382C2.50441 16.7918 3.1898 15.6672 3.5127 14.6011C3.87951 13.3897 3.95041 12.1505 4.06543 11.2817C4.18834 10.3535 4.36649 9.65575 4.83301 9.01709C5.23894 8.46138 5.85618 8.04418 6.71289 7.58252C7.49309 7.16212 8.5898 6.6545 9.47852 5.98291C10.3844 5.29824 11.1798 4.38493 11.8008 3.76123C12.4777 3.08147 13.0676 2.60057 13.7754 2.34912C14.5809 2.06297 15.4671 2.04414 16.5527 2.13428C17.5533 2.21736 18.8967 2.42139 20.1514 2.42139C21.4061 2.42139 22.7494 2.21736 23.75 2.13428Z" stroke="#3A3845" stroke-width="2.5"/>
</svg>
